<?xml version="1.0" encoding="UTF-8" standalone="no"?>
<!DOCTYPE svg PUBLIC "-//W3C//DTD SVG 1.1//EN" "http://www.w3.org/Graphics/SVG/1.1/DTD/svg11.dtd">
<svg width="200px" height="120px" viewBox="0 0 200 120" version="1.1" xmlns="http://www.w3.org/2000/svg" xmlns:xlink="http://www.w3.org/1999/xlink" xml:space="preserve" xmlns:serif="http://www.serif.com/" style="fill-rule:evenodd;clip-rule:evenodd;stroke-linejoin:round;stroke-miterlimit:2;">
    <g id="Rounded">
        <path id="Background" d="M200,8C200,3.585 196.415,0 192,0L8,0C3.585,0 0,3.585 0,8L0,112C0,116.415 3.585,120 8,120L192,120C196.415,120 200,116.415 200,112L200,8Z" style="fill:rgb(0,210,73);"/>
        <g transform="matrix(1,0,0,1,-299.963,-90.0201)">
            <path d="M403.39,127.48C409.805,127.503 416.012,129.787 420.91,133.93C421.959,134.882 423.588,134.851 424.6,133.86L429.6,128.78C430.091,128.294 430.367,127.631 430.367,126.94C430.367,126.188 430.039,125.472 429.47,124.98C425.512,121.614 420.937,119.05 416,117.43L417.58,109.96C417.616,109.786 417.634,109.608 417.634,109.43C417.634,107.987 416.447,106.8 415.004,106.8C415.003,106.8 415.001,106.8 415,106.8L405.24,106.8C404,106.799 402.917,107.669 402.65,108.88L401.23,115.52C388.23,116.16 377.23,122.58 377.23,135.74C377.23,147.13 386.32,152.01 395.93,155.39C405.02,158.77 409.82,160.02 409.82,164.78C409.82,169.54 405.02,172.54 397.95,172.54C391.088,172.648 384.453,170.05 379.49,165.31C378.467,164.313 376.813,164.313 375.79,165.31L370.36,170.61C369.849,171.104 369.56,171.784 369.56,172.495C369.56,173.206 369.849,173.886 370.36,174.38C374.778,178.548 380.179,181.531 386.06,183.05L384.6,190C384.564,190.178 384.545,190.359 384.545,190.541C384.545,191.994 385.718,193.2 387.17,193.24L397,193.24C398.249,193.254 399.345,192.38 399.61,191.16L401.02,184.5C416.55,183.5 426.02,175.19 426.02,162.94C426.02,151.68 416.54,146.94 405.02,143.04C398.45,140.66 392.77,139.04 392.77,134.15C392.77,129.26 398.08,127.48 403.39,127.48Z" style="fill:white;fill-rule:nonzero;"/>
        </g>
    </g>
</svg>
