<?xml version="1.0" encoding="UTF-8" standalone="no"?>
<!DOCTYPE svg PUBLIC "-//W3C//DTD SVG 1.1//EN" "http://www.w3.org/Graphics/SVG/1.1/DTD/svg11.dtd">
<svg width="200px" height="120px" viewBox="0 0 200 120" version="1.1" xmlns="http://www.w3.org/2000/svg" xmlns:xlink="http://www.w3.org/1999/xlink" xml:space="preserve" xmlns:serif="http://www.serif.com/" style="fill-rule:evenodd;clip-rule:evenodd;stroke-linejoin:round;stroke-miterlimit:2;">
    <g id="Rounded">
        <path id="Background" d="M200,8C200,3.585 196.415,0 192,0L8,0C3.585,0 0,3.585 0,8L0,112C0,116.415 3.585,120 8,120L192,120C196.415,120 200,116.415 200,112L200,8Z" style="fill:white;"/>
        <g id="Cash-App---Dollar---Icon.svg" serif:id="Cash App - Dollar - Icon.svg" transform="matrix(0.930997,0,0,0.932377,100,60.4571)">
            <g transform="matrix(1,0,0,1,-150,-150)">
                <g id="RGB_Dollar" transform="matrix(1,0,0,1,106.8,106.8)">
                    <path d="M56.28,0C65,0 69.29,0 74,1.48C79.114,3.332 83.148,7.366 85,12.48C86.48,17.15 86.48,21.48 86.48,30.16L86.48,56.28C86.48,64.95 86.48,69.28 85,73.96C83.148,79.074 79.114,83.108 74,84.96C69.33,86.44 65,86.44 56.32,86.44L30.12,86.44C21.45,86.44 17.12,86.44 12.44,84.96C7.326,83.108 3.292,79.074 1.44,73.96C0,69.29 0,65 0,56.28L0,30.12C0,21.45 0,17.12 1.48,12.44C3.332,7.326 7.366,3.292 12.48,1.44C17.11,0 21.45,0 30.12,0L56.28,0Z" style="fill:url(#_Linear1);"/>
                    <path d="M45.4,28.33C49.647,28.337 53.758,29.846 57,32.59C57.691,33.216 58.765,33.194 59.43,32.54L62.77,29.19C63.093,28.869 63.275,28.432 63.275,27.977C63.275,27.479 63.058,27.005 62.68,26.68C60.057,24.449 57.023,22.75 53.75,21.68L54.75,16.75C54.774,16.635 54.786,16.518 54.786,16.4C54.786,15.445 54,14.66 53.046,14.66C53.044,14.66 53.042,14.66 53.04,14.66L46.61,14.66C45.792,14.659 45.078,15.232 44.9,16.03L44,20.44C35.44,20.86 28.18,25.1 28.18,33.79C28.18,41.3 34.18,44.53 40.52,46.79C46.52,49.02 49.7,49.85 49.7,52.99C49.7,56.13 46.53,58.11 41.86,58.11C37.33,58.182 32.948,56.468 29.67,53.34C28.997,52.678 27.903,52.678 27.23,53.34L23.65,56.84C23.312,57.166 23.121,57.616 23.121,58.085C23.121,58.554 23.312,59.004 23.65,59.33C26.567,62.062 30.128,64.013 34,65L33,69.57C32.975,69.689 32.963,69.809 32.963,69.931C32.963,70.891 33.74,71.687 34.7,71.71L41.15,71.71C41.974,71.715 42.696,71.136 42.87,70.33L43.8,66C54.06,65.37 60.33,59.85 60.33,51.77C60.33,44.33 54.08,41.19 46.49,38.63C42.15,37 38.4,35.93 38.4,32.71C38.4,29.49 41.9,28.33 45.4,28.33Z" style="fill:white;fill-rule:nonzero;"/>
                </g>
            </g>
        </g>
    </g>
    <defs>
        <linearGradient id="_Linear1" x1="0" y1="0" x2="1" y2="0" gradientUnits="userSpaceOnUse" gradientTransform="matrix(5.29047e-15,-86.4,86.4,5.29047e-15,43.2,86.4)"><stop offset="0" style="stop-color:rgb(0,194,68);stop-opacity:1"/><stop offset="1" style="stop-color:rgb(0,214,75);stop-opacity:1"/></linearGradient>
    </defs>
</svg>
