<?xml version="1.0" encoding="UTF-8" standalone="no"?>
<!DOCTYPE svg PUBLIC "-//W3C//DTD SVG 1.1//EN" "http://www.w3.org/Graphics/SVG/1.1/DTD/svg11.dtd">
<svg width="200px" height="120px" viewBox="0 0 200 120" version="1.1" xmlns="http://www.w3.org/2000/svg" xmlns:xlink="http://www.w3.org/1999/xlink" xml:space="preserve" xmlns:serif="http://www.serif.com/" style="fill-rule:evenodd;clip-rule:evenodd;stroke-linejoin:round;stroke-miterlimit:2;">
    <g id="Rounded">
        <g id="Large">
            <g id="large-dai" serif:id="large/dai">
                <path id="Background" d="M200,8C200,3.585 196.415,0 192,0L8,0C3.585,0 0,3.585 0,8L0,112C0,116.415 3.585,120 8,120L192,120C196.415,120 200,116.415 200,112L200,8Z" style="fill:rgb(245,172,55);"/>
                <g id="multi-collateral-dai-dai-logo.svg" transform="matrix(0.269852,0,0,0.269852,100,60)">
                    <g transform="matrix(1,0,0,1,-222.22,-222.22)">
                        <g id="Layer_x0020_1">
                            <path d="M222.22,0C344.96,0 444.44,99.5 444.44,222.22C444.44,344.96 344.96,444.44 222.22,444.44C99.5,444.44 0,344.95 0,222.22C0,99.5 99.5,0 222.22,0Z" style="fill:rgb(245,172,55);fill-rule:nonzero;"/>
                            <path d="M147.63,237.91L314.85,237.91C316.65,237.91 317.5,237.91 317.63,235.55C318.32,226.96 318.32,218.32 317.63,209.72C317.63,208.05 316.8,207.36 314.99,207.36L146.94,207.36C144.86,207.36 144.3,208.05 144.3,210L144.3,234.72C144.3,237.91 144.3,237.91 147.63,237.91ZM308.2,178.47C308.44,177.84 308.44,177.15 308.2,176.53C306.79,173.46 305.12,170.53 303.18,167.78C300.26,163.08 296.82,158.75 292.9,154.86C291.05,152.51 288.91,150.4 286.51,148.61C274.49,138.38 260.2,131.14 244.84,127.5C237.09,125.76 229.17,124.93 221.23,125L146.65,125C144.57,125 144.29,125.83 144.29,127.64L144.29,176.94C144.29,179.02 144.29,179.58 146.93,179.58L307.2,179.58C307.2,179.58 308.59,179.3 308.87,178.47L308.19,178.47L308.2,178.47ZM308.2,266.8C305.84,266.54 303.46,266.54 301.1,266.8L147.08,266.8C145,266.8 144.3,266.8 144.3,269.58L144.3,317.78C144.3,320 144.3,320.56 147.08,320.56L218.19,320.56C221.59,320.82 224.99,320.58 228.32,319.87C238.64,319.13 248.79,316.89 258.47,313.2C261.99,311.98 265.39,310.39 268.6,308.48L269.57,308.48C286.24,299.81 299.78,286.19 308.32,269.47C308.32,269.47 309.29,267.37 308.2,266.82L308.2,266.8ZM116.39,345.55L116.39,268.75C116.39,266.94 116.39,266.67 114.17,266.67L84.03,266.67C82.36,266.67 81.67,266.67 81.67,264.45L81.67,238.06L113.89,238.06C115.69,238.06 116.39,238.06 116.39,235.7L116.39,209.59C116.39,207.92 116.39,207.51 114.17,207.51L84.03,207.51C82.36,207.51 81.67,207.51 81.67,205.29L81.67,180.85C81.67,179.32 81.67,178.91 83.89,178.91L113.75,178.91C115.83,178.91 116.39,178.91 116.39,176.27L116.39,101.41C116.39,99.19 116.39,98.63 119.17,98.63L223.33,98.63C230.89,98.93 238.4,99.76 245.83,101.13C261.14,103.96 275.85,109.43 289.3,117.24C298.22,122.49 306.43,128.83 313.74,136.13C319.24,141.84 324.2,148.02 328.6,154.6C332.97,161.27 336.6,168.4 339.45,175.85C339.8,177.79 341.66,179.1 343.6,178.77L368.46,178.77C371.65,178.77 371.65,178.77 371.79,181.83L371.79,204.61C371.79,206.83 370.96,207.39 368.73,207.39L349.56,207.39C347.62,207.39 347.06,207.39 347.2,209.89C347.96,218.35 347.96,226.84 347.2,235.3C347.2,237.66 347.2,237.94 349.85,237.94L371.78,237.94C372.75,239.19 371.78,240.44 371.78,241.7C371.92,243.31 371.92,244.94 371.78,246.55L371.78,263.36C371.78,265.72 371.09,266.42 369,266.42L342.75,266.42C340.92,266.07 339.14,267.24 338.72,269.06C332.47,285.31 322.47,299.88 309.55,311.56C304.83,315.81 299.87,319.81 294.69,323.5C289.13,326.7 283.72,330.03 278.02,332.67C267.53,337.39 256.53,340.87 245.24,343.08C234.52,345 223.65,345.87 212.74,345.72L116.35,345.72L116.35,345.58L116.39,345.55Z" style="fill:rgb(254,254,253);fill-rule:nonzero;"/>
                        </g>
                    </g>
                </g>
            </g>
        </g>
    </g>
</svg>
