<?xml version="1.0" encoding="UTF-8" standalone="no"?>
<!DOCTYPE svg PUBLIC "-//W3C//DTD SVG 1.1//EN" "http://www.w3.org/Graphics/SVG/1.1/DTD/svg11.dtd">
<svg width="100%" height="100%" viewBox="0 0 200 120" version="1.1" xmlns="http://www.w3.org/2000/svg" xmlns:xlink="http://www.w3.org/1999/xlink" xml:space="preserve" xmlns:serif="http://www.serif.com/" style="fill-rule:evenodd;clip-rule:evenodd;stroke-linejoin:round;stroke-miterlimit:2;">
    <g id="Rounded">
        <g id="Large">
            <g id="large-ethereum" serif:id="large/ethereum">
                <path id="Background" d="M200,8C200,3.585 196.415,0 192,0L8,0C3.585,0 0,3.585 0,8L0,112C0,116.415 3.585,120 8,120L192,120C196.415,120 200,116.415 200,112L200,8Z" style="fill:rgb(78,142,233);"/>
                <g id="ETH-Logo" serif:id="ETH Logo" transform="matrix(1,0,0,1,1.29409,0)">
                    <g transform="matrix(0.120468,0,0,0.120468,-51.8786,-35.1509)">
                        <path d="M1250,883.907L1451.84,764.617L1250,429.707L1048.16,764.617L1250,883.907Z" style="fill:white;fill-rule:nonzero;"/>
                    </g>
                    <g transform="matrix(0.120468,0,0,0.120468,-51.8852,-35.1509)">
                        <path d="M1250,1087.28L1451.95,802.886L1250,922.067L1048.16,802.886L1250,1087.28Z" style="fill:white;fill-rule:nonzero;"/>
                    </g>
                </g>
            </g>
        </g>
    </g>
</svg>
