<?xml version="1.0" encoding="UTF-8" standalone="no"?>
<!DOCTYPE svg PUBLIC "-//W3C//DTD SVG 1.1//EN" "http://www.w3.org/Graphics/SVG/1.1/DTD/svg11.dtd">
<svg width="200px" height="120px" viewBox="0 0 200 120" version="1.1" xmlns="http://www.w3.org/2000/svg" xmlns:xlink="http://www.w3.org/1999/xlink" xml:space="preserve" xmlns:serif="http://www.serif.com/" style="fill-rule:evenodd;clip-rule:evenodd;stroke-linejoin:round;stroke-miterlimit:2;">
    <g id="Rounded">
        <g id="Large">
            <g id="large-litecoin" serif:id="large/litecoin">
                <path id="Background" d="M200,8C200,3.585 196.415,0 192,0L8,0C3.585,0 0,3.585 0,8L0,112C0,116.415 3.585,120 8,120L192,120C196.415,120 200,116.415 200,112L200,8Z" style="fill:rgb(52,93,157);"/>
                <g transform="matrix(1.12333,0,0,1.12333,53.6063,13.6063)">
                    <g id="litecoin-ltc-logo.svg">
                        <g>
                            <g>
                                <circle cx="41.3" cy="41.3" r="36.83" style="fill:white;"/>
                                <path d="M41.3,0C18.643,0 -0,18.643 0,41.3C0,63.957 18.643,82.6 41.3,82.6C63.957,82.6 82.6,63.957 82.6,41.3L82.6,41.18C82.6,18.634 64.085,0.066 41.54,-0L41.3,0ZM42,42.7L37.7,57.2L60.7,57.2C60.714,57.2 60.727,57.199 60.741,57.199C61.362,57.199 61.879,57.699 61.9,58.32L61.9,58.7L59.9,65.6C59.719,66.27 59.093,66.729 58.4,66.7L23.2,66.7L29.1,46.6L22.5,48.6L24,44L30.6,42L38.9,13.8C39.087,13.135 39.709,12.679 40.4,12.7L49.3,12.7C49.314,12.7 49.327,12.699 49.341,12.699C49.962,12.699 50.479,13.199 50.5,13.82L50.5,14.2L43.5,38L50.1,36L48.7,40.8L42,42.7Z" style="fill:rgb(52,93,157);fill-rule:nonzero;"/>
                            </g>
                        </g>
                    </g>
                </g>
            </g>
        </g>
    </g>
</svg>
